<svg width="42" height="42" viewBox="0 0 42 42" fill="none" xmlns="http://www.w3.org/2000/svg">
<g id="Clip path group">
<mask id="mask0_6_8685" style="mask-type:luminance" maskUnits="userSpaceOnUse" x="0" y="0" width="42" height="42">
<g id="clip0_1_2">
<path id="Vector" d="M41.987 0H0V41.987H41.987V0Z" fill="white"/>
</g>
</mask>
<g mask="url(#mask0_6_8685)">
<g id="Group">
<path id="Vector_2" d="M31.5916 41.987H10.3954C4.66337 41.987 0 37.324 0 31.5917V10.3957C0 4.66357 4.66337 0.000183105 10.3954 0.000183105H31.5916C37.3237 0.000183105 41.987 4.66357 41.987 10.3957V31.5917C41.987 37.324 37.3237 41.987 31.5916 41.987Z" fill="#06A77D"/>
<path id="c" d="M21.5824 34.2614C18.9638 34.2614 16.7114 33.7042 14.8252 32.5898C12.95 31.4643 11.5075 29.9041 10.4978 27.9094C9.49922 25.9146 8.99991 23.6189 8.99991 21.0224C8.99991 18.3924 9.50476 16.0857 10.5145 14.102C11.5353 12.1073 12.9833 10.5527 14.8584 9.4383C16.7336 8.31277 18.9638 7.75 21.5491 7.75C23.7794 7.75 25.7322 8.15675 27.4077 8.97026C29.0831 9.78376 30.4091 10.926 31.3855 12.397C32.3619 13.868 32.9 15.5953 32.9999 17.5789H26.3092C26.1206 16.2974 25.6213 15.2666 24.8113 14.4865C24.0124 13.6953 22.9638 13.2997 21.6657 13.2997C20.5672 13.2997 19.6074 13.6006 18.7863 14.2023C17.9763 14.793 17.3439 15.6566 16.889 16.7933C16.434 17.93 16.2066 19.3062 16.2066 20.9221C16.2066 22.5603 16.4285 23.9533 16.8723 25.1011C17.3272 26.2489 17.9652 27.1237 18.7863 27.7255C19.6074 28.3272 20.5672 28.6281 21.6657 28.6281C22.4756 28.6281 23.2024 28.461 23.846 28.1267C24.5006 27.7923 25.0387 27.3076 25.4604 26.6724C25.8931 26.026 26.1761 25.2515 26.3092 24.3489H32.9999C32.889 26.3102 32.3564 28.0375 31.4021 29.5308C30.459 31.0129 29.1553 32.1719 27.4909 33.0077C25.8265 33.8435 23.8571 34.2614 21.5824 34.2614Z" fill="white"/>
</g>
</g>
</g>
</svg>
